.
 
http://www.scenetime.com    -  Hottest private tracker on the net. !!!

New release on http://www.scenetime.com

        Seed back for speed


...................................NFO:.................................................[img]http://img338.imageshack.us/img338/1839/thedoublebluray.jpg[/img]


[color=blue][size=5][b]The.Double.2011.BDRip.XVID.AC3.HQ.Hive-CM8[/b][/size][/color]


[b] Thx Hive

CM8 Doing it right the first time :D

Source: Bluray

Video: 720x304 @bitrate 1700 2pass
Audio: English DTS to AC3 5.1 @448
Sample: yes included
Subs: yes english in srt /subs[/b]


[url]http://www.imdb.com/title/tt1646980/[/url]


General
Complete name                  : The.Double.2011.BDRip.XVID.AC3.HQ.Hive-CM8.avi
Format                         : AVI
Format/Info                    : Audio Video Interleave
File size                      : 1.48 GiB
Duration                       : 1h 38mn
Overall bit rate               : 2 157 Kbps
Writing application            : Nandub v1.0rc2
Writing library                : Nandub build 1853/release

Video
ID                             : 0
Format                         : MPEG-4 Visual
Format profile                 : Advanced Simple@L5
Format settings, BVOP          : 1
Format settings, QPel          : Yes
Format settings, GMC           : No warppoints
Format settings, Matrix        : Default (H.263)
Muxing mode                    : Packed bitstream
Codec ID                       : XVID
Codec ID/Hint                  : XviD
Duration                       : 1h 38mn
Bit rate                       : 1 699 Kbps
Width                          : 720 pixels
Height                         : 304 pixels
Display aspect ratio           : 2.35:1
Frame rate                     : 23.976 fps
Color space                    : YUV
Chroma subsampling             : 4:2:0
Bit depth                      : 8 bits
Scan type                      : Progressive
Compression mode               : Lossy
Bits/(Pixel*Frame)             : 0.324
Stream size                    : 1.17 GiB (79%)
Writing library                : XviD 1.2.1 (UTC 2008-12-04)

Audio
ID                             : 1
Format                         : AC-3
Format/Info                    : Audio Coding 3
Mode extension                 : CM (complete main)
Codec ID                       : 2000
Duration                       : 1h 38mn
Bit rate mode                  : Constant
Bit rate                       : 448 Kbps
Channel(s)                     : 6 channels
Channel positions              : Front: L C R, Side: L R, LFE
Sampling rate                  : 48.0 KHz
Bit depth                      : 16 bits
Compression mode               : Lossy
Delay relative to video        : 50ms
Stream size                    : 315 MiB (21%)
Alignment                      : Split accross interleaves
Interleave, duration           : 42 ms (1.00 video frame)
Interleave, preload duration   : 500 ms


A retired CIA operative is paired with a young FBI agent to unravel the mystery 
of a senator's murder, with all signs pointing to a Soviet assassin.


Odette Annable		(as Odette Yustman)
Topher Grace	... 	Ben Geary
Richard Gere	... 	Paul Shepherdson
Martin Sheen	... 	Tom Highland


[img]http://img441.imageshack.us/img441/1636/84210784.png[/img]
[img]http://img18.imageshack.us/img18/3580/dodoz.png[/img]
[img]http://img823.imageshack.us/img823/5386/dododo.png[/img]
[img]http://img851.imageshack.us/img851/6637/dodododo.png[/img]
[img]http://img233.imageshack.us/img233/3669/dododododo.png[/img]
[img]http://img806.imageshack.us/img806/9513/dodododododo.png[/img]
[img]http://img84.imageshack.us/img84/1382/dododododododo.png[/img]
[img]http://img824.imageshack.us/img824/9476/dodododododododo.png[/img]




Greetz

ViSiON,SPK,SceneLovers,PRESTiGE,SANTi,3LT0N,YanKeeS,MAGNET,THC,T0XiC,LKRG,Feel-Free,FLAWL3SS,
WBZ,BHRG,SiC,26K,NOVA,D2U,SeToNeUp,TED,Rapeseed,SAFC,goldadvance,KaN1vE,Unevano,Pinnz,Wayne
Mr Hive,and most P2P groups
Great Work Guys :D

LOOKING FOR ANYTHING YOU WANT TO LOOK AND SOUND BETTER

CM8@hushmail.com